<?xml version="1.0" encoding="UTF-8"?>
<svg version="1.1" xmlns="http://www.w3.org/2000/svg" width="1080" height="1920">
<path d="M0 0 C356.4 0 712.8 0 1080 0 C1080 633.6 1080 1267.2 1080 1920 C723.6 1920 367.2 1920 0 1920 C0 1286.4 0 652.8 0 0 Z " fill="#727272" transform="translate(0,0)"/>
<path d="M0 0 C5.63250678 3.5741156 9.16170897 7.4851269 11.2890625 13.8671875 C12.32931944 21.13412524 10.55562774 26.93415207 6.2890625 32.8671875 C2.65525855 36.66719454 -0.71991171 38.62635684 -5.97265625 39.26171875 C-10.25331041 39.31540997 -14.27911556 39.23645426 -18.43823242 38.16381836 C-22.62889485 37.78398585 -25.48438644 39.0714785 -29.1875 40.8125 C-29.9015097 41.13350677 -30.61551941 41.45451355 -31.35116577 41.7852478 C-33.68636255 42.83963837 -36.01089916 43.91560501 -38.3359375 44.9921875 C-39.96947769 45.73498844 -41.60359944 46.47651168 -43.23828125 47.21679688 C-48.07246204 49.41219988 -52.89347233 51.63538383 -57.7109375 53.8671875 C-58.36864136 54.1715271 -59.02634521 54.4758667 -59.70397949 54.78942871 C-64.83193078 57.16311127 -69.95572407 59.5455901 -75.07348633 61.94116211 C-85.07890866 66.61311257 -95.1672589 71.08605976 -105.26852417 75.54592896 C-119.7242205 81.93297443 -134.07912911 88.52899262 -148.40942383 95.19213867 C-149.61196808 95.75043365 -149.61196808 95.75043365 -150.83880615 96.32000732 C-152.34126424 97.01782489 -153.84305424 97.71708338 -155.34405518 98.41802979 C-158.11041674 99.70308445 -160.81426211 100.90162904 -163.7109375 101.8671875 C-163.15747524 101.86854403 -162.60401299 101.86990056 -162.03377914 101.87129819 C-129.22432261 101.9519646 -96.41491265 102.0429259 -63.60552305 102.14723911 C-59.66523826 102.15975784 -55.7249532 102.17219064 -51.78466797 102.18457031 C-50.60801817 102.1882693 -50.60801817 102.1882693 -49.40759766 102.19204302 C-36.70952254 102.23175661 -24.01143852 102.26451015 -11.31333756 102.29468732 C1.71803075 102.32581158 14.74936139 102.36442517 27.78068733 102.40997756 C35.82039954 102.43784558 43.86008422 102.45988593 51.89983171 102.47445001 C58.06680239 102.48624761 64.23369562 102.50846988 70.40062141 102.53457069 C72.92896601 102.54364215 75.45732532 102.54933569 77.98568535 102.55140114 C81.43807049 102.55472663 84.89019693 102.57021245 88.3425293 102.5887146 C89.34254597 102.58677987 90.34256264 102.58484513 91.37288284 102.58285177 C104.5665345 102.68852839 116.54538485 107.27663156 126.1875 116.48046875 C138.86788088 130.88142175 139.73906227 145.83888066 139.67724609 164.14868164 C139.68131745 166.18184185 139.68666249 168.21499984 139.69317627 170.24815369 C139.70678763 175.73979783 139.70157705 181.23127184 139.69203901 186.72291875 C139.68441133 192.48597352 139.69149654 198.24901432 139.69619751 204.0120697 C139.70164559 213.6865397 139.69448788 223.36094086 139.68017578 233.03540039 C139.66384652 244.20196391 139.66914367 255.36836311 139.685655 266.53492266 C139.69929137 276.14376383 139.70117914 285.75255568 139.69333899 295.36140341 C139.6886749 301.09102567 139.68800286 306.82057083 139.69794846 312.55018806 C139.70664734 317.93721099 139.70054291 323.32402305 139.68326569 328.71102333 C139.67931663 330.6817922 139.68040762 332.65257898 139.68705368 334.62334061 C139.74168625 352.47655137 137.50885562 367.12405337 124.7421875 380.609375 C120.94991381 384.09971607 116.93551977 386.66187308 112.2890625 388.8671875 C111.64603143 389.19352281 111.00300035 389.51985812 110.34048349 389.85608238 C102.8029865 393.32557825 95.760136 393.43371078 87.58293152 393.3818512 C86.1068804 393.38718386 84.63083472 393.39425368 83.15479928 393.40289825 C79.12060942 393.42145767 75.08678833 393.41524389 71.05258358 393.40474522 C66.69320128 393.39773397 62.33389329 393.41376583 57.97453308 393.42674255 C49.44234044 393.44835663 40.91028132 393.44826214 32.37807032 393.44011701 C25.44047793 393.43380997 18.5029244 393.43496051 11.56533241 393.44138908 C10.08262587 393.44274157 10.08262587 393.44274157 8.56996566 393.44412137 C6.5616895 393.44597263 4.55341335 393.44783519 2.5451372 393.44970893 C-16.27734048 393.4662788 -35.09974315 393.45757557 -53.92221632 393.44072335 C-71.12675739 393.42603177 -88.33112374 393.44064863 -105.5356423 393.46949352 C-123.21734474 393.49891677 -140.89896663 393.50985096 -158.58069247 393.50031132 C-160.58238167 393.4992888 -162.58407089 393.49829419 -164.58576012 393.4973278 C-166.06291863 393.49661322 -166.06291863 393.49661322 -167.56991873 393.4958842 C-174.49396333 393.49372369 -181.41793136 393.50350498 -188.341959 393.51809883 C-196.78782868 393.53565244 -205.23347577 393.53546162 -213.67933682 393.51274718 C-217.98484466 393.50163165 -222.28996079 393.498381 -226.59545135 393.51704788 C-230.54417731 393.53394699 -234.4921728 393.52737567 -238.44085225 393.50283109 C-239.86203724 393.49797804 -241.28328223 393.50138017 -242.70441661 393.51431853 C-257.84596163 393.64211899 -268.99546878 389.21885263 -279.86328125 378.8046875 C-289.12620917 369.14502337 -293.04048933 357.27683731 -292.96490479 344.07595825 C-292.96802477 343.22679962 -292.97114475 342.37764099 -292.97435927 341.50275028 C-292.98229377 338.67640342 -292.9760334 335.85027398 -292.96972656 333.02392578 C-292.97243848 330.98973465 -292.97600055 328.9555445 -292.98034668 326.9213562 C-292.98945013 321.40891303 -292.98593452 315.89654489 -292.97958851 310.38410044 C-292.97451658 304.60721036 -292.97922341 298.83032661 -292.98236084 293.05343628 C-292.98599758 283.35087942 -292.98120963 273.64835302 -292.97167969 263.94580078 C-292.96080185 252.7418416 -292.96431704 241.53795525 -292.9753325 230.33399785 C-292.98442099 220.70318039 -292.98568282 211.0723848 -292.98045516 201.44156444 C-292.97734327 195.69460347 -292.97690452 189.94767668 -292.98352814 184.20071793 C-292.98932346 178.79491662 -292.98526471 173.38920877 -292.97373962 167.98341751 C-292.97110446 166.00416722 -292.97183849 164.02490902 -292.97626495 162.04566193 C-293.01352406 143.6869456 -291.50480997 129.01622834 -278.125 115.0546875 C-269.52707414 107.26368672 -259.11472565 102.7754868 -247.54296875 102.75 C-237.26632182 102.36495448 -228.75401731 98.25559126 -219.5234375 94.0546875 C-217.74381137 93.26799321 -215.96294692 92.48409473 -214.1809082 91.70288086 C-210.63744729 90.14771366 -207.09876669 88.5824361 -203.56347656 87.00878906 C-197.22309132 84.19705199 -190.81952976 81.5517544 -184.3984375 78.9296875 C-172.60891137 74.07815208 -160.84443192 69.16835858 -149.0859375 64.2421875 C-147.71881119 63.66949631 -147.71881119 63.66949631 -146.32406616 63.0852356 C-141.65307334 61.12845931 -136.98225384 59.17126976 -132.31152344 57.21386719 C-124.167219 53.80099898 -116.02133861 50.39189665 -107.87554932 46.98257446 C-105.22014881 45.87104328 -102.56488765 44.75917987 -99.90966797 43.6472168 C-91.55101994 40.14700595 -83.19138547 36.64920479 -74.82849121 33.15914917 C-70.9006786 31.51981013 -66.97339134 29.87921467 -63.04614258 28.23852539 C-61.18296015 27.46055488 -59.3195236 26.68319263 -57.45581055 25.90649414 C-52.55028374 23.86203989 -47.64920907 21.80784022 -42.75692749 19.73187256 C-40.88828889 18.9421405 -39.01434881 18.16498281 -37.13989258 17.38916016 C-36.14884521 16.96554199 -35.15779785 16.54192383 -34.13671875 16.10546875 C-33.31856689 15.76169189 -32.50041504 15.41791504 -31.6574707 15.0637207 C-28.72039143 13.25829922 -27.80846516 10.92725901 -26.59765625 7.796875 C-22.16533489 -1.84879352 -8.89002803 -3.71485321 0 0 Z " fill="#4B4B4B" transform="translate(616.7109375,764.1328125)"/>
<path d="M0 0 C47.19 0 94.38 0 143 0 C143 14.85 143 29.7 143 45 C95.81 45 48.62 45 0 45 C0 30.15 0 15.3 0 0 Z " fill="#727272" transform="translate(571,931)"/>
<path d="M0 0 C47.19 0 94.38 0 143 0 C143 6.6 143 13.2 143 20 C95.81 20 48.62 20 0 20 C0 13.4 0 6.8 0 0 Z " fill="#717171" transform="translate(571,1078)"/>
<path d="M0 0 C46.86 0 93.72 0 142 0 C142 6.27 142 12.54 142 19 C95.14 19 48.28 19 0 19 C0 12.73 0 6.46 0 0 Z " fill="#737373" transform="translate(572,1043)"/>
<path d="M0 0 C46.86 0 93.72 0 142 0 C142 6.27 142 12.54 142 19 C95.14 19 48.28 19 0 19 C0 12.73 0 6.46 0 0 Z " fill="#737373" transform="translate(572,1007)"/>
<path d="M0 0 C5.67507225 2.00296668 9.30675089 5.61350179 12 11 C12.52113171 16.22840334 12.64273534 20.64036754 10.375 25.4375 C6.16599676 29.97879296 1.99558208 32.64757858 -4.1875 33.375 C-9.13094718 32.88875929 -12.20402191 31.13618054 -16 28 C-19.8031509 22.97002623 -20.53819442 18.24305528 -20 12 C-15.6903105 3.71213558 -9.44234542 -0.95305916 0 0 Z " fill="#727272" transform="translate(511,968)"/>
<path d="M0 0 C7.4423439 6.42747882 7.4423439 6.42747882 8.1640625 10.99609375 C8.32704666 16.45606308 7.98614322 20.79976304 4.75 25.375 C-0.426833 30.04677612 -3.64587698 30.72780455 -10.48828125 30.65625 C-15.63802556 30.13180645 -18.26372397 27.49455658 -21.5625 23.75 C-24.70417659 19.32838109 -24.9902741 15.71007888 -24.25 10.375 C-22.26027617 5.28023629 -19.15382676 1.41412243 -14.20703125 -1 C-9.07258182 -2.63974433 -4.80122556 -2.40061278 0 0 Z " fill="#727272" transform="translate(515.25,1036.625)"/>
<path d="M0 0 C4.75172395 2.70004501 8.09161246 5.8465539 9.77734375 11.125 C10.57225115 15.86960352 10.28596955 19.12658639 8.08984375 23.4375 C4.75802761 27.30961065 1.42873174 30.80715531 -3.796875 31.43359375 C-13.2397385 31.82457806 -13.2397385 31.82457806 -17.34765625 28.4375 C-21.28908769 24.6431369 -22.54433054 20.18058272 -22.78515625 14.8125 C-22.70269101 9.26483835 -20.94320945 6.58779079 -17.14453125 2.68359375 C-12.00342966 -1.48571425 -6.23486539 -2.45449885 0 0 Z " fill="#727272" transform="translate(398.22265625,1035.875)"/>
<path d="M0 0 C4.45146251 2.18526342 7.18885145 4.9394521 10 9 C11.66666583 13.9999975 11.57623861 18.28654087 9.5 23.125 C7.00774591 27.61980211 3.77697429 30.15684886 -1 32 C-7.00996534 33.27960868 -11.21298681 31.86195299 -16.2734375 28.58203125 C-19.38704029 25.72906942 -20.82293152 23.08437289 -21.50390625 18.9140625 C-21.68160719 8.93911624 -21.68160719 8.93911624 -18.25 4.8125 C-12.91907605 -0.50496202 -7.24950192 -0.85226365 0 0 Z " fill="#727272" transform="translate(455,1069)"/>
<path d="M0 0 C4.75982924 2.62772498 7.04616381 6.26349144 8.75 11.375 C9.41219784 17.00368163 8.21751713 20.11664871 5.1171875 24.64453125 C2.64494543 27.77368335 0.50248116 29.12417295 -3.25 30.375 C-8.94734689 30.93930864 -13.37785716 30.66086378 -18.25 27.375 C-23.130019 21.96741137 -23.60905042 18.51661533 -23.5234375 11.359375 C-23.15127272 7.29746227 -22.09250919 5.29039404 -19.25 2.375 C-13.26035102 -2.44704652 -6.99304932 -3.08783996 0 0 Z " fill="#727272" transform="translate(457.25,936.625)"/>
<path d="M0 0 C5.36787898 1.88869816 8.45991584 4.91983169 11 10 C11.51228015 15.60988749 11.76256033 20.44764504 9.25 25.5625 C4.90428416 30.27035883 2.02315314 31.7718375 -4.3125 32.25 C-9.8183054 31.87672506 -13.59211276 30.51903623 -17.375 26.4375 C-20.8655263 21.20171055 -20.57367793 16.1730977 -20 10 C-15.90898664 1.18858662 -9.15589528 -1.22277429 0 0 Z " fill="#727272" transform="translate(454,1002)"/>
<path d="M0 0 C4.42573549 2.39640764 7.17672412 5.48517238 9.5625 9.875 C10.35372329 15.52659492 9.88158709 20.13103537 7.4375 25.3125 C3.83391983 29.28567813 0.15469558 31.78114633 -5.30859375 32.16015625 C-11.862994 31.70698524 -15.90651675 29.25875824 -20.375 24.4375 C-22.67240348 19.57760803 -22.79467215 15.2873236 -22 10 C-20.1875 6.5 -20.1875 6.5 -18 4 C-17.484375 3.401875 -16.96875 2.80375 -16.4375 2.1875 C-12.10329824 -1.39292754 -5.22525318 -0.80591768 0 0 Z " fill="#727272" transform="translate(398,969)"/>
</svg>
